<?xml version="1.0" encoding="utf-8"?>
<!-- Generator: Adobe Illustrator 26.3.1, SVG Export Plug-In . SVG Version: 6.00 Build 0)  -->
<svg version="1.1" id="Layer_1" xmlns="http://www.w3.org/2000/svg" xmlns:xlink="http://www.w3.org/1999/xlink" x="0px" y="0px"
	 viewBox="0 0 590.7 109.8" style="enable-background:new 0 0 590.7 109.8;" xml:space="preserve">
<style type="text/css">
	.st0{fill:#FF6B00;}
	.st1{fill:#FFFFFF;}
	.st2{fill:#FFFFFE;}
</style>
<g>
	<path class="st0" d="M386.9,0.6c-0.2,0-0.3-0.1-0.3-0.3c0-0.2,0.1-0.3,0.3-0.3h180.8v109.8C526.3,51.2,461.4,10.4,386.9,0.6"/>
	<path class="st1" d="M537.9,63.9c1.2-18.1,0.8-28.6,3.9-31.5c2.9-2.6,8-3.4,16.8-4c-19.2-2.2-18.8-1.7-20.7-20.4
		c-1.9,18.7-1.5,18.1-20.7,20.4c8.8,0.6,13.9,1.4,16.8,4C537.1,35.3,536.7,45.9,537.9,63.9"/>
	<g>
		<g>
			<path d="M53.3,74.8h-9.1v32.8h9.1V74.8z M49.9,60c-2.7,0-4.8,2.1-4.8,4.8c0,2.7,2.1,4.8,4.8,4.8c2.7,0,4.8-2.1,4.8-4.8
				C54.7,62.1,52.6,60,49.9,60 M58.9,83.8c-0.9,12.5,17.4,9.5,16.9,17.1c-0.3,3.1-2.9,4.1-5.7,4c-4.5-0.4-7.3-3-9.8-5.8l-2.7,6
				c3.7,2.1,7.7,3.1,11.2,3.4c7.8,0.5,14.5-2.9,14.9-10.5C84.6,86.2,65.6,87.7,66,81.7c0.2-2.6,3.1-3.9,6.2-3.8
				c3.1,0.3,5.6,2,8.3,4.4l2.4-5.4c-3.4-1.5-6.6-2.2-9.5-2.4C64.9,74,59.3,78.5,58.9,83.8 M19.4,107.6h3.8l19.2-44h-5l-13.3,31
				L11,63.5H0L19.4,107.6z M180.1,107.6V89.5c0-12.2-9.3-15.3-14.8-15.3c-3.9,0-7.2,1.5-10.6,3.7l-0.2-0.1v-3.1h-8.4v32.8h9.1V81.2
				c2.7-2.4,5.3-3.3,7.6-3.3c4.8,0,8.1,4.6,8.1,9.7v20.1H180.1z M260.7,91.2c0,9.2,6.8,16.7,17.8,16.7c11,0,17.8-7.6,17.8-16.7
				c0-9.2-6.8-16.7-17.8-16.7C267.5,74.4,260.7,82,260.7,91.2 M286.7,91.2c0,7.6-2.5,13.6-8.2,13.6c-5.7,0-8.2-6-8.2-13.6
				c0-7.6,2.5-13.6,8.2-13.6C284.1,77.6,286.7,83.6,286.7,91.2 M104.7,91.2c0,9.2,6.8,16.7,17.8,16.7c11,0,17.8-7.6,17.8-16.7
				c0-9.2-6.8-16.7-17.8-16.7C111.5,74.4,104.7,82,104.7,91.2 M130.7,91.2c0,7.6-2.5,13.6-8.2,13.6c-5.7,0-8.2-6-8.2-13.6
				c0-7.6,2.5-13.6,8.2-13.6C128.1,77.6,130.7,83.6,130.7,91.2"/>
			<g>
				<rect x="89.7" y="74.8" width="9.1" height="32.8"/>
				<path d="M94.5,60c-2.7,0-4.8,2.1-4.8,4.8c0,2.7,2.1,4.8,4.8,4.8c2.7,0,4.8-2.1,4.8-4.8C99.3,62.1,97.2,60,94.5,60"/>
			</g>
		</g>
		<path d="M369.6,81.3v19.8c-2.4,2-4.5,3.5-7.9,3.5c-4,0-9.2-3.4-9.2-13.3C352.5,80.7,360.8,73,369.6,81.3z M447.3,107.7V57.5h-9.1
			v50.2H447.3z M422.2,102.5v5.2h9V85.4c0-7.4-6.1-11.1-14.7-11.1c-6,0-11.3,2.1-14.5,3.4l4,7.4l3.7-3.6c1.5-1.6,4-3.9,7-3.9
			c4,0,5.5,3.2,5.5,7.4v13.8c-4.3,3.4-6.1,4.2-7.8,4.2c-6.1,0-6.9-10.9-0.1-11.6l2.7-0.3v-3.1h-4.1c-5.5,0-12,2.9-12,10.4
			s6.1,9.9,9.2,9.9c3.3,0,5.8-1.7,8.9-3.7L422.2,102.5z M369.9,104.4v3.2h8.7V57.4h-9.1v20c-2.5-1.9-6.4-3.1-10.3-3.1
			c-5,0-16.8,3.1-16.8,17.5c0,10.7,9.4,16.6,16.8,16.6C363.5,108.3,367,106.9,369.9,104.4z M311.3,74.8h-8.7v32.8h9.1V81.1
			c2.7-2.4,5.3-3.3,7.6-3.3c4.8,0,8.1,4.6,8.1,9.7v20.1h9.2V89.5c0-12.2-9.3-15.3-14.8-15.3c-4,0-7.3,1.5-10.4,3.8V74.8z
			 M390.6,60.1c-2.7,0-4.8,2.1-4.8,4.8c0,2.7,2.1,4.8,4.8,4.8c2.7,0,4.8-2.1,4.8-4.8C395.4,62.2,393.3,60.1,390.6,60.1z
			 M394.8,107.6V74.8h-9.2v32.8H394.8z"/>
		<polygon points="258.3,107.6 247.7,63.4 240.5,63.4 228.2,93.9 212.6,63.3 205.7,63.3 199.9,107.6 204.5,107.6 208.6,75.3 
			224.9,108.1 227.1,108.1 240.3,75.3 248.6,107.6 		"/>
		<path d="M488.5,91.3c0-9.2-6.8-16.7-17.8-16.7c-11,0-17.8,7.6-17.8,16.7c0,9.2,7.4,16.8,18.4,16.8c0.3,0,0.5,0,0.8,0
			c0.4,0,0.8,0,1.1,0l0,0c3.5-0.3,7.5-1.3,11.2-3.3l-1.9-5.5c-2.9,2.9-4.9,4.3-8.7,4.9c-3.7,0.6-7.5-0.7-9.1-3.6
			c-1.5-2.6-2.1-5.1-2.1-8.2l25.9,0C488.5,92,488.5,91.7,488.5,91.3z M462.7,88.1c0.7-6,3.2-10.3,8-10.3c4.8,0,7.4,4.4,8,10.3
			L462.7,88.1z"/>
	</g>
	<g>
		<path class="st2" d="M537.9,63.9"/>
	</g>
	<path class="st1" d="M537.9,63.9"/>
	<g>
		<path d="M575.4,4.4h0.8l2.7,3.3l2.6-3.3h0.8v7.5h-0.8V5.7h0l-2.5,3.1h-0.1l-2.5-3.1h0v6.2h-0.8V4.4z"/>
		<path d="M583.9,4.4h2.8c1.2,0,2.2,0.3,2.9,1s1.1,1.6,1.1,2.7c0,1.1-0.4,2.1-1.1,2.8c-0.7,0.7-1.7,1.1-2.9,1.1h-2.8V4.4z
			 M586.7,11.2c1,0,1.8-0.3,2.3-0.8s0.9-1.3,0.9-2.2c0-0.9-0.3-1.7-0.9-2.2c-0.6-0.5-1.4-0.8-2.4-0.8h-1.8v6H586.7z"/>
	</g>
	<g>
		<path d="M489.1,68.5h0.8l2.7,3.3l2.6-3.3h0.8V76h-0.8v-6.2h0l-2.5,3.1h-0.1l-2.5-3.1h0V76h-0.8V68.5z"/>
		<path d="M497.6,68.5h2.8c1.2,0,2.2,0.3,2.9,1s1.1,1.6,1.1,2.7c0,1.1-0.4,2.1-1.1,2.8c-0.7,0.7-1.7,1.1-2.9,1.1h-2.8V68.5z
			 M500.4,75.3c1,0,1.8-0.3,2.3-0.8s0.9-1.3,0.9-2.2c0-0.9-0.3-1.7-0.9-2.2c-0.6-0.5-1.4-0.8-2.4-0.8h-1.8v6H500.4z"/>
	</g>
</g>
</svg>
